<svg width="48" height="48" viewBox="0 0 48 48" fill="none" xmlns="http://www.w3.org/2000/svg">
<path d="M24 43C33.9411 43 42 34.9411 42 25C42 15.0589 33.9411 7 24 7C14.0589 7 6 15.0589 6 25C6 34.9411 14.0589 43 24 43Z" stroke="#64717C" stroke-width="4" stroke-miterlimit="10"/>
<path d="M24 14C27.3137 14 30 11.3137 30 8C30 4.68629 27.3137 2 24 2C20.6863 2 18 4.68629 18 8C18 11.3137 20.6863 14 24 14Z" fill="url(#paint0_linear_1_2)"/>
<path d="M40 39C43.3137 39 46 36.3137 46 33C46 29.6863 43.3137 27 40 27C36.6863 27 34 29.6863 34 33C34 36.3137 36.6863 39 40 39Z" fill="url(#paint1_linear_1_2)"/>
<path d="M8 39C11.3137 39 14 36.3137 14 33C14 29.6863 11.3137 27 8 27C4.68629 27 2 29.6863 2 33C2 36.3137 4.68629 39 8 39Z" fill="url(#paint2_linear_1_2)"/>
<defs>
<linearGradient id="paint0_linear_1_2" x1="20.022" y1="4.022" x2="28.425" y2="12.425" gradientUnits="userSpaceOnUse">
<stop stop-color="#33BEF0"/>
<stop offset="1" stop-color="#0A85D9"/>
</linearGradient>
<linearGradient id="paint1_linear_1_2" x1="36.022" y1="29.022" x2="44.425" y2="37.425" gradientUnits="userSpaceOnUse">
<stop stop-color="#33BEF0"/>
<stop offset="1" stop-color="#0A85D9"/>
</linearGradient>
<linearGradient id="paint2_linear_1_2" x1="4.022" y1="29.022" x2="12.425" y2="37.425" gradientUnits="userSpaceOnUse">
<stop stop-color="#33BEF0"/>
<stop offset="1" stop-color="#0A85D9"/>
</linearGradient>
</defs>
</svg>
